<?xml version="1.0" encoding="UTF-8" standalone="no"?>
<!-- Created with Inkscape (http://www.inkscape.org/) -->

<svg
   xmlns:dc="http://purl.org/dc/elements/1.1/"
   xmlns:cc="http://creativecommons.org/ns#"
   xmlns:rdf="http://www.w3.org/1999/02/22-rdf-syntax-ns#"
   xmlns:svg="http://www.w3.org/2000/svg"
   xmlns="http://www.w3.org/2000/svg"
   xmlns:sodipodi="http://sodipodi.sourceforge.net/DTD/sodipodi-0.dtd"
   xmlns:inkscape="http://www.inkscape.org/namespaces/inkscape"
   width="240"
   height="40.000153"
   id="svg9375"
   version="1.1"
   inkscape:version="0.48.5 r10040"
   sodipodi:docname="New document 12">
  <defs
     id="defs9377">
    <clipPath
       id="clipPath7837-8">
      <path
         id="path7839-6"
         d="m 0,595.28 841.89,0 L 841.89,0 0,0 0,595.28 z"
         inkscape:connector-curvature="0" />
    </clipPath>
  </defs>
  <sodipodi:namedview
     id="base"
     pagecolor="#ffffff"
     bordercolor="#666666"
     borderopacity="1.0"
     inkscape:pageopacity="0.0"
     inkscape:pageshadow="2"
     inkscape:zoom="2.8"
     inkscape:cx="163.27964"
     inkscape:cy="40.393585"
     inkscape:document-units="px"
     inkscape:current-layer="layer1"
     showgrid="false"
     fit-margin-top="0"
     fit-margin-left="0"
     fit-margin-right="0"
     fit-margin-bottom="0"
     inkscape:window-width="1920"
     inkscape:window-height="1176"
     inkscape:window-x="0"
     inkscape:window-y="0"
     inkscape:window-maximized="1" />
  <metadata
     id="metadata9380">
    <rdf:RDF>
      <cc:Work
         rdf:about="">
        <dc:format>image/svg+xml</dc:format>
        <dc:type
           rdf:resource="http://purl.org/dc/dcmitype/StillImage" />
        <dc:title></dc:title>
      </cc:Work>
    </rdf:RDF>
  </metadata>
  <g
     inkscape:label="Layer 1"
     inkscape:groupmode="layer"
     id="layer1"
     transform="translate(94.285726,-260.93359)">
    <g
       id="g3898"
       transform="matrix(1.5965021,0,0,1.5455226,99.653016,-1691.6781)"
       style="fill:#000000"
       inkscape:export-filename="/home/hanson/Dropbox/prosjekter/ORIA/bilder/hioalogo-black-web-no-pxgrid-240x40.png"
       inkscape:export-xdpi="90"
       inkscape:export-ydpi="90">
      <g
         id="g3900"
         transform="matrix(0.24021653,0,0,0.24021653,-382.9803,1104.7662)"
         style="fill:#000000">
        <g
           id="g3902"
           transform="matrix(1.25,0,0,-1.25,653.73011,1122.6874)"
           style="fill:#000000">
          <g
             id="g3904"
             style="fill:#000000">
            <g
               id="g3906"
               clip-path="url(#clipPath7837-8)"
               style="fill:#000000">
              <g
                 id="g3908"
                 transform="translate(498.6963,349.5718)"
                 style="fill:#000000">
                <path
                   style="fill:#000000;fill-opacity:1;fill-rule:nonzero;stroke:none"
                   id="path3910"
                   d="M 0,-0.38463675 C 0,-0.85284983 -0.235,-1.2362299 -0.522,-1.2362299 l -23.219,0 c -0.287,0 -0.523,0.38338007 -0.523,0.85159315 l 0,0.3850114529 c 0,0.4698444871 0.236,0.8548559471 0.523,0.8548559471 l 23.219,0 C -0.235,0.85523065 0,0.47021919 0,3.747029e-4 L 0,-0.38463675 z"
                   inkscape:connector-curvature="0" />
              </g>
              <g
                 id="g3912"
                 transform="translate(372.1709,349.5718)"
                 style="fill:#000000">
                <path
                   style="fill:#000000;fill-opacity:1;fill-rule:nonzero;stroke:none"
                   id="path3914"
                   d="M 0,-0.38463675 C 0,-0.85284983 -0.235,-1.2362299 -0.523,-1.2362299 l -23.217,0 c -0.288,0 -0.524,0.38338007 -0.524,0.85159315 l 0,0.3850114529 c 0,0.4698444871 0.236,0.8548559471 0.524,0.8548559471 l 23.217,0 C -0.235,0.85523065 0,0.47021919 0,3.747029e-4 L 0,-0.38463675 z"
                   inkscape:connector-curvature="0" />
              </g>
              <g
                 id="g3916"
                 transform="translate(498.6963,284.3389)"
                 style="fill:#000000">
                <path
                   style="fill:#000000;fill-opacity:1;fill-rule:nonzero;stroke:none"
                   id="path3918"
                   d="m 0,-0.06895085 c 0,-0.33247941 -0.235,-0.60356019 -0.522,-0.60356019 l -23.219,0 c -0.287,0 -0.523,0.27108078 -0.523,0.60356019 l 0,0.8827502 c 0,0.33247945 0.236,0.60587715 0.523,0.60587715 l 23.219,0 C -0.235,1.4196765 0,1.1462788 0,0.81379935 l 0,-0.8827502 z"
                   inkscape:connector-curvature="0" />
              </g>
              <g
                 id="g3920"
                 transform="translate(459.8115,362.5815)"
                 style="fill:#000000">
                <path
                   style="fill:#000000;fill-opacity:1;fill-rule:nonzero;stroke:none"
                   id="path3922"
                   d="M 0,-0.65825369 C 0,-1.0543588 -0.235,-1.3800759 -0.522,-1.3800759 l -28.17,0 c -0.287,0 -0.523,0.3257171 -0.523,0.72182221 l 0,0.69145871 c 0,0.39748526 0.236,0.72044202 0.523,0.72044202 l 28.17,0 c 0.287,0 0.522,-0.32295676 0.522,-0.72044202 l 0,-0.69145871 z"
                   inkscape:connector-curvature="0" />
              </g>
              <g
                 id="g3924"
                 transform="translate(481.7188,355.939)"
                 style="fill:#000000">
                <path
                   style="fill:#000000;fill-opacity:1;fill-rule:nonzero;stroke:none"
                   id="path3926"
                   d="M 0,-0.40102404 C 0,-0.80192231 -0.235,-1.1290442 -0.522,-1.1290442 l -28.17,0 c -0.287,0 -0.523,0.32712189 -0.523,0.72802016 l 0,0.69600393 c 0,0.40089826 0.236,0.72802011 0.523,0.72802011 l 28.17,0 C -0.235,1.023 0,0.69587815 0,0.29497989 l 0,-0.69600393 z"
                   inkscape:connector-curvature="0" />
              </g>
              <g
                 id="g3928"
                 transform="translate(459.8115,297.4702)"
                 style="fill:#000000">
                <path
                   style="fill:#000000;fill-opacity:1;fill-rule:nonzero;stroke:none"
                   id="path3930"
                   d="M 0,-0.15445109 C 0,-0.54280511 -0.235,-0.8596912 -0.522,-0.8596912 l -28.17,0 c -0.287,0 -0.523,0.31688609 -0.523,0.70524011 l 0,0.67422571 c 0,0.38835402 0.236,0.70524008 0.523,0.70524008 l 28.17,0 C -0.235,1.2250147 0,0.90812864 0,0.51977462 l 0,-0.67422571 z"
                   inkscape:connector-curvature="0" />
              </g>
              <g
                 id="g3932"
                 transform="translate(481.7188,290.9658)"
                 style="fill:#000000">
                <path
                   style="fill:#000000;fill-opacity:1;fill-rule:nonzero;stroke:none"
                   id="path3934"
                   d="m 0,-0.1570076 c 0,-0.38598117 -0.235,-0.7006836 -0.522,-0.7006836 l -28.17,0 c -0.287,0 -0.523,0.31470243 -0.523,0.7006836 l 0,0.69664896 c 0,0.38867094 0.236,0.70337334 0.523,0.70337334 l 28.17,0 C -0.235,1.2430147 0,0.9283123 0,0.53964136 L 0,-0.1570076 z"
                   inkscape:connector-curvature="0" />
              </g>
              <g
                 id="g3936"
                 transform="translate(437.9063,369.2456)"
                 style="fill:#000000">
                <path
                   style="fill:#000000;fill-opacity:1;fill-rule:nonzero;stroke:none"
                   id="path3938"
                   d="M 0,-0.64572908 C 0,-1.1398188 -0.196,-1.547081 -0.436,-1.547081 l -28.341,0 c -0.24,0 -0.436,0.4072622 -0.436,0.90135192 l 0,0.35144453 c 0,0.49615699 0.196,0.89928455 0.436,0.89928455 l 28.341,0 C -0.196,0.605 0,0.20187244 0,-0.29428455 l 0,-0.35144453 z"
                   inkscape:connector-curvature="0" />
              </g>
              <g
                 id="g3940"
                 transform="translate(437.9063,303.8335)"
                 style="fill:#000000">
                <path
                   style="fill:#000000;fill-opacity:1;fill-rule:nonzero;stroke:none"
                   id="path3942"
                   d="m 0,-0.14416958 c 0,-0.31880375 -0.235,-0.57984514 -0.522,-0.57984514 l -28.168,0 c -0.288,0 -0.523,0.26104139 -0.523,0.57984514 l 0,0.86421363 C -29.213,1.0399586 -28.978,1.301 -28.69,1.301 l 28.168,0 C -0.235,1.301 0,1.0399586 0,0.72004405 l 0,-0.86421363 z"
                   inkscape:connector-curvature="0" />
              </g>
              <g
                 id="g3944"
                 transform="translate(347.9082,336.23)"
                 style="fill:#000000">
                <path
                   style="fill:#000000;fill-opacity:1;fill-rule:nonzero;stroke:none"
                   id="path3946"
                   d="m 0,-0.33156879 c 0,-0.30813977 0.229,-0.56035382 0.511,-0.56035382 l 23.242,0 c 0.281,0 0.511,0.25221405 0.511,0.56035382 l 0,1.04175367 c 0,0.30704312 -0.23,0.56035382 -0.511,0.56035382 l -23.242,0 C 0.229,1.2705387 0,1.017228 0,0.71018488 l 0,-1.04175367 z"
                   inkscape:connector-curvature="0" />
              </g>
              <g
                 id="g3948"
                 transform="translate(474.4229,336.23)"
                 style="fill:#000000">
                <path
                   style="fill:#000000;fill-opacity:1;fill-rule:nonzero;stroke:none"
                   id="path3950"
                   d="m 0,-0.33156879 c 0,-0.30813977 0.229,-0.56035382 0.51,-0.56035382 l 23.244,0 c 0.28,0 0.51,0.25221405 0.51,0.56035382 l 0,1.04175367 c 0,0.30704312 -0.23,0.56035382 -0.51,0.56035382 l -23.244,0 C 0.229,1.2705387 0,1.017228 0,0.71018488 l 0,-1.04175367 z"
                   inkscape:connector-curvature="0" />
              </g>
              <g
                 id="g3952"
                 transform="translate(347.9082,284.3389)"
                 style="fill:#000000">
                <path
                   style="fill:#000000;fill-opacity:1;fill-rule:nonzero;stroke:none"
                   id="path3954"
                   d="m 0,-0.06895085 c 0,-0.33247941 0.235,-0.60356019 0.522,-0.60356019 l 23.219,0 c 0.287,0 0.523,0.27108078 0.523,0.60356019 l 0,0.8827502 c 0,0.33247945 -0.236,0.60587715 -0.523,0.60587715 l -23.219,0 C 0.235,1.4196765 0,1.1462788 0,0.81379935 l 0,-0.8827502 z"
                   inkscape:connector-curvature="0" />
              </g>
              <g
                 id="g3959"
                 transform="translate(386.793,362.5815)"
                 style="fill:#000000">
                <path
                   style="fill:#000000;fill-opacity:1;fill-rule:nonzero;stroke:none"
                   id="path3961"
                   d="M 0,-0.65825369 C 0,-1.0543588 0.235,-1.3800759 0.522,-1.3800759 l 28.17,0 c 0.287,0 0.523,0.3257171 0.523,0.72182221 l 0,0.69145871 c 0,0.39748526 -0.236,0.72044202 -0.523,0.72044202 l -28.17,0 C 0.235,0.75364704 0,0.43069028 0,0.03320502 l 0,-0.69145871 z"
                   inkscape:connector-curvature="0" />
              </g>
              <g
                 id="g3963"
                 transform="translate(364.8857,355.939)"
                 style="fill:#000000">
                <path
                   style="fill:#000000;fill-opacity:1;fill-rule:nonzero;stroke:none"
                   id="path3965"
                   d="M 0,-0.40102404 C 0,-0.80192231 0.235,-1.1290442 0.523,-1.1290442 l 28.168,0 c 0.288,0 0.524,0.32712189 0.524,0.72802016 l 0,0.69600393 C 29.215,0.69587815 28.979,1.023 28.691,1.023 l -28.168,0 C 0.235,1.023 0,0.69587815 0,0.29497989 l 0,-0.69600393 z"
                   inkscape:connector-curvature="0" />
              </g>
              <g
                 id="g3967"
                 transform="translate(386.793,297.4702)"
                 style="fill:#000000">
                <path
                   style="fill:#000000;fill-opacity:1;fill-rule:nonzero;stroke:none"
                   id="path3969"
                   d="M 0,-0.15445109 C 0,-0.54280511 0.235,-0.8596912 0.522,-0.8596912 l 28.17,0 c 0.287,0 0.523,0.31688609 0.523,0.70524011 l 0,0.67422571 c 0,0.38835402 -0.236,0.70524008 -0.523,0.70524008 l -28.17,0 C 0.235,1.2250147 0,0.90812864 0,0.51977462 l 0,-0.67422571 z"
                   inkscape:connector-curvature="0" />
              </g>
              <g
                 id="g3971"
                 transform="translate(364.8857,290.9658)"
                 style="fill:#000000">
                <path
                   style="fill:#000000;fill-opacity:1;fill-rule:nonzero;stroke:none"
                   id="path3973"
                   d="m 0,-0.1570076 c 0,-0.38598117 0.235,-0.7006836 0.523,-0.7006836 l 28.168,0 c 0.288,0 0.524,0.31470243 0.524,0.7006836 l 0,0.69664896 c 0,0.38867094 -0.236,0.70337334 -0.524,0.70337334 l -28.168,0 C 0.235,1.2430147 0,0.9283123 0,0.53964136 L 0,-0.1570076 z"
                   inkscape:connector-curvature="0" />
              </g>
              <g
                 id="g3975"
                 transform="translate(437.9092,355.3188)"
                 style="fill:#000000">
                <path
                   style="fill:#000000;fill-opacity:1;fill-rule:nonzero;stroke:none"
                   id="path3977"
                   d="M 0,0.63657512 C 0,0.00227841 -0.447,-0.51584674 -0.992,-0.51584674 l -27.235,0 c -0.545,0 -0.992,0.51812515 -0.992,1.15242186 l 0,2.01325318 c 0,0.6354584 0.447,1.1535835 0.992,1.1535835 l 27.235,0 C -0.447,3.8034118 0,3.2852867 0,2.6498283 L 0,0.63657512 z"
                   inkscape:connector-curvature="0" />
              </g>
              <g
                 id="g3979"
                 transform="translate(394.085,342.6978)"
                 style="fill:#000000">
                <path
                   style="fill:#000000;fill-opacity:1;fill-rule:nonzero;stroke:none"
                   id="path3981"
                   d="m 0,0 c 0,-0.546 -0.446,-0.992 -0.992,-0.992 l -27.234,0 c -0.545,0 -0.991,0.446 -0.991,0.992 l 0,0.991 c 0,0.546 0.446,0.992 0.991,0.992 l 27.234,0 C -0.446,1.983 0,1.537 0,0.991 L 0,0 z"
                   inkscape:connector-curvature="0" />
              </g>
              <g
                 id="g3983"
                 transform="translate(437.9092,341.7065)"
                 style="fill:#000000">
                <path
                   style="fill:#000000;fill-opacity:1;fill-rule:nonzero;stroke:none"
                   id="path3985"
                   d="M 0,0.99033731 C 0,0.52823556 -0.447,0.15076782 -0.992,0.15076782 l -27.235,0 c -0.545,0 -0.992,0.37746774 -0.992,0.83956949 l 0,2.51786209 c 0,0.4612555 0.447,0.8387233 0.992,0.8387233 l 27.235,0 C -0.447,4.3469227 0,3.9694549 0,3.5081994 L 0,0.99033731 z"
                   inkscape:connector-curvature="0" />
              </g>
              <g
                 id="g3987"
                 transform="translate(481.7168,342.6978)"
                 style="fill:#000000">
                <path
                   style="fill:#000000;fill-opacity:1;fill-rule:nonzero;stroke:none"
                   id="path3989"
                   d="m 0,0 c 0,-0.546 -0.447,-0.992 -0.992,-0.992 l -27.227,0 c -0.547,0 -0.992,0.446 -0.992,0.992 l 0,0.991 c 0,0.546 0.445,0.992 0.992,0.992 l 27.227,0 C -0.447,1.983 0,1.537 0,0.991 L 0,0 z"
                   inkscape:connector-curvature="0" />
              </g>
              <g
                 id="g3991"
                 transform="translate(394.085,329.2114)"
                 style="fill:#000000">
                <path
                   style="fill:#000000;fill-opacity:1;fill-rule:nonzero;stroke:none"
                   id="path3993"
                   d="M 0,0.73803755 C 0,0.15272611 -0.446,-0.32538544 -0.992,-0.32538544 l -27.234,0 c -0.545,0 -0.991,0.47811155 -0.991,1.06342299 l 0,2.12362995 c 0,0.5863835 0.446,1.066639 0.991,1.066639 l 27.234,0 C -0.446,3.9283065 0,3.448051 0,2.8616675 L 0,0.73803755 z"
                   inkscape:connector-curvature="0" />
              </g>
              <g
                 id="g3995"
                 transform="translate(437.9092,329.2114)"
                 style="fill:#000000">
                <path
                   style="fill:#000000;fill-opacity:1;fill-rule:nonzero;stroke:none"
                   id="path3997"
                   d="M 0,0.73803755 C 0,0.15272611 -0.447,-0.32538544 -0.992,-0.32538544 l -27.235,0 c -0.545,0 -0.992,0.47811155 -0.992,1.06342299 l 0,2.12362995 c 0,0.5863835 0.447,1.066639 0.992,1.066639 l 27.235,0 C -0.447,3.9283065 0,3.448051 0,2.8616675 L 0,0.73803755 z"
                   inkscape:connector-curvature="0" />
              </g>
              <g
                 id="g3999"
                 transform="translate(481.7168,329.2114)"
                 style="fill:#000000">
                <path
                   style="fill:#000000;fill-opacity:1;fill-rule:nonzero;stroke:none"
                   id="path4001"
                   d="M 0,0.73803755 C 0,0.15272611 -0.447,-0.32538544 -0.992,-0.32538544 l -27.227,0 c -0.547,0 -0.992,0.47811155 -0.992,1.06342299 l 0,2.12362995 c 0,0.5863835 0.445,1.066639 0.992,1.066639 l 27.227,0 C -0.447,3.9283065 0,3.448051 0,2.8616675 L 0,0.73803755 z"
                   inkscape:connector-curvature="0" />
              </g>
              <g
                 id="g4003"
                 transform="translate(394.085,316.3423)"
                 style="fill:#000000">
                <path
                   style="fill:#000000;fill-opacity:1;fill-rule:nonzero;stroke:none"
                   id="path4005"
                   d="M 0,0.79365704 C 0,0.17773246 -0.446,-0.32538544 -0.992,-0.32538544 l -27.234,0 c -0.545,0 -0.991,0.5031179 -0.991,1.11904248 l 0,1.95494016 c 0,0.6170527 0.446,1.1201706 0.991,1.1201706 l 27.234,0 C -0.446,3.8687678 0,3.3656499 0,2.7485972 L 0,0.79365704 z"
                   inkscape:connector-curvature="0" />
              </g>
              <g
                 id="g4007"
                 transform="translate(437.9092,316.7144)"
                 style="fill:#000000">
                <path
                   style="fill:#000000;fill-opacity:1;fill-rule:nonzero;stroke:none"
                   id="path4009"
                   d="m 0,-0.02274053 c 0,-0.38452526 -0.447,-0.69990651 -0.992,-0.69990651 l -27.235,0 c -0.545,0 -0.992,0.31538125 -0.992,0.69990651 l 0,0.69778986 c 0,0.38523087 0.447,0.69990647 0.992,0.69990647 l 27.235,0 C -0.447,1.3749558 0,1.0602802 0,0.67504933 l 0,-0.69778986 z"
                   inkscape:connector-curvature="0" />
              </g>
              <g
                 id="g4011"
                 transform="translate(481.7168,316.3423)"
                 style="fill:#000000">
                <path
                   style="fill:#000000;fill-opacity:1;fill-rule:nonzero;stroke:none"
                   id="path4013"
                   d="M 0,0.79365704 C 0,0.17773246 -0.447,-0.32538544 -0.992,-0.32538544 l -27.227,0 c -0.547,0 -0.992,0.5031179 -0.992,1.11904248 l 0,1.95494016 c 0,0.6170527 0.445,1.1201706 0.992,1.1201706 l 27.227,0 C -0.447,3.8687678 0,3.3656499 0,2.7485972 L 0,0.79365704 z"
                   inkscape:connector-curvature="0" />
              </g>
              <g
                 id="g4015"
                 transform="translate(394.085,303.8442)"
                 style="fill:#000000">
                <path
                   style="fill:#000000;fill-opacity:1;fill-rule:nonzero;stroke:none"
                   id="path4017"
                   d="M 0,0.71047308 C 0,-0.12174308 -0.446,-0.8015387 -0.992,-0.8015387 l -27.234,0 c -0.545,0 -0.991,0.67979562 -0.991,1.51201178 l 0,1.13096042 c 0,0.8322162 0.446,1.5104876 0.991,1.5104876 l 27.234,0 C -0.446,3.3519211 0,2.6736497 0,1.8414335 L 0,0.71047308 z"
                   inkscape:connector-curvature="0" />
              </g>
              <g
                 id="g4019"
                 transform="translate(481.7168,303.8442)"
                 style="fill:#000000">
                <path
                   style="fill:#000000;fill-opacity:1;fill-rule:nonzero;stroke:none"
                   id="path4021"
                   d="M 0,0.71047308 C 0,-0.12174308 -0.447,-0.8015387 -0.992,-0.8015387 l -27.227,0 c -0.547,0 -0.992,0.67979562 -0.992,1.51201178 l 0,1.13096042 c 0,0.8322162 0.445,1.5104876 0.992,1.5104876 l 27.227,0 C -0.447,3.3519211 0,2.6736497 0,1.8414335 L 0,0.71047308 z"
                   inkscape:connector-curvature="0" />
              </g>
              <g
                 id="g4023"
                 transform="translate(415.9922,348.6235)"
                 style="fill:#000000">
                <path
                   style="fill:#000000;fill-opacity:1;fill-rule:nonzero;stroke:none"
                   id="path4025"
                   d="M 0,0.68956059 C 0,0.13093102 -0.445,-0.32538544 -0.992,-0.32538544 l -27.227,0 c -0.547,0 -0.991,0.45631646 -0.991,1.01494603 l 0,2.18131541 c 0,0.5586296 0.444,1.0159692 0.991,1.0159692 l 27.227,0 C -0.445,3.8868452 0,3.4295056 0,2.870876 L 0,0.68956059 z"
                   inkscape:connector-curvature="0" />
              </g>
              <g
                 id="g4027"
                 transform="translate(459.8105,348.6235)"
                 style="fill:#000000">
                <path
                   style="fill:#000000;fill-opacity:1;fill-rule:nonzero;stroke:none"
                   id="path4029"
                   d="M 0,0.68956059 C 0,0.13093102 -0.447,-0.32538544 -0.992,-0.32538544 l -27.229,0 c -0.547,0 -0.992,0.45631646 -0.992,1.01494603 l 0,2.18131541 c 0,0.5586296 0.445,1.0159692 0.992,1.0159692 l 27.229,0 C -0.447,3.8868452 0,3.4295056 0,2.870876 L 0,0.68956059 z"
                   inkscape:connector-curvature="0" />
              </g>
              <g
                 id="g4031"
                 transform="translate(415.9922,335.4614)"
                 style="fill:#000000">
                <path
                   style="fill:#000000;fill-opacity:1;fill-rule:nonzero;stroke:none"
                   id="path4033"
                   d="m 0,0.66661452 c 0,-0.546 -0.445,-0.992 -0.992,-0.992 l -27.227,0 c -0.547,0 -0.991,0.446 -0.991,0.992 l 0,2.47599998 c 0,0.545 0.444,0.992 0.991,0.992 l 27.227,0 c 0.547,0 0.992,-0.447 0.992,-0.992 L 0,0.66661452 z"
                   inkscape:connector-curvature="0" />
              </g>
              <g
                 id="g4035"
                 transform="translate(459.8105,335.4614)"
                 style="fill:#000000">
                <path
                   style="fill:#000000;fill-opacity:1;fill-rule:nonzero;stroke:none"
                   id="path4037"
                   d="m 0,0.66661452 c 0,-0.546 -0.447,-0.992 -0.992,-0.992 l -27.229,0 c -0.547,0 -0.992,0.446 -0.992,0.992 l 0,2.47599998 c 0,0.545 0.445,0.992 0.992,0.992 l 27.229,0 c 0.545,0 0.992,-0.447 0.992,-0.992 L 0,0.66661452 z"
                   inkscape:connector-curvature="0" />
              </g>
              <g
                 id="g4039"
                 transform="translate(372.1689,323.5815)"
                 style="fill:#000000">
                <path
                   style="fill:#000000;fill-opacity:1;fill-rule:nonzero;stroke:none"
                   id="path4041"
                   d="M 0,-0.23280501 C 0,-0.7554989 -0.445,-1.1824613 -0.992,-1.1824613 l -22.274,0 c -0.546,0 -0.992,0.4269624 -0.992,0.94965629 l 0,0.23645676 c 0,0.52173657 0.446,0.94965629 0.992,0.94965629 l 22.274,0 c 0.547,0 0.992,-0.42791972 0.992,-0.94965629 l 0,-0.23645676 z"
                   inkscape:connector-curvature="0" />
              </g>
              <g
                 id="g4043"
                 transform="translate(415.9922,322.7144)"
                 style="fill:#000000">
                <path
                   style="fill:#000000;fill-opacity:1;fill-rule:nonzero;stroke:none"
                   id="path4045"
                   d="m 0,0.83330425 c 0,-0.5853313 -0.445,-1.06345904 -0.992,-1.06345904 l -27.227,0 c -0.547,0 -0.991,0.47812774 -0.991,1.06345904 l 0,2.12370195 c 0,0.5853312 0.444,1.064531 0.991,1.064531 l 27.227,0 C -0.445,4.0215372 0,3.5423374 0,2.9570062 L 0,0.83330425 z"
                   inkscape:connector-curvature="0" />
              </g>
              <g
                 id="g4047"
                 transform="translate(498.6963,323.5815)"
                 style="fill:#000000">
                <path
                   style="fill:#000000;fill-opacity:1;fill-rule:nonzero;stroke:none"
                   id="path4049"
                   d="M 0,-0.23280501 C 0,-0.7554989 -0.445,-1.1824613 -0.992,-1.1824613 l -22.279,0 c -0.545,0 -0.993,0.4269624 -0.993,0.94965629 l 0,0.23645676 c 0,0.52173657 0.448,0.94965629 0.993,0.94965629 l 22.279,0 c 0.547,0 0.992,-0.42791972 0.992,-0.94965629 l 0,-0.23645676 z"
                   inkscape:connector-curvature="0" />
              </g>
              <g
                 id="g4051"
                 transform="translate(459.8105,322.7144)"
                 style="fill:#000000">
                <path
                   style="fill:#000000;fill-opacity:1;fill-rule:nonzero;stroke:none"
                   id="path4053"
                   d="m 0,0.83330425 c 0,-0.5853313 -0.447,-1.06345904 -0.992,-1.06345904 l -27.229,0 c -0.547,0 -0.992,0.47812774 -0.992,1.06345904 l 0,2.12370195 c 0,0.5853312 0.445,1.064531 0.992,1.064531 l 27.229,0 C -0.447,4.0215372 0,3.5423374 0,2.9570062 L 0,0.83330425 z"
                   inkscape:connector-curvature="0" />
              </g>
              <g
                 id="g4055"
                 transform="translate(372.1689,310.3374)"
                 style="fill:#000000">
                <path
                   style="fill:#000000;fill-opacity:1;fill-rule:nonzero;stroke:none"
                   id="path4057"
                   d="M 0,-0.17314664 C 0,-0.62302071 -0.445,-0.992 -0.992,-0.992 l -22.274,0 c -0.546,0 -0.992,0.36897929 -0.992,0.81885336 l 0,0.61414002 c 0,0.45152499 0.446,0.81885332 0.992,0.81885332 l 22.274,0 C -0.445,1.2598467 0,0.89251837 0,0.44099338 l 0,-0.61414002 z"
                   inkscape:connector-curvature="0" />
              </g>
              <g
                 id="g4059"
                 transform="translate(415.9922,310.3374)"
                 style="fill:#000000">
                <path
                   style="fill:#000000;fill-opacity:1;fill-rule:nonzero;stroke:none"
                   id="path4061"
                   d="m 0,-0.01836498 c 0,-0.42392446 -0.445,-0.7716203 -0.992,-0.7716203 l -27.227,0 c -0.547,0 -0.991,0.34769584 -0.991,0.7716203 l 0,0.57871524 c 0,0.42548014 0.444,0.77162034 0.991,0.77162034 l 27.227,0 C -0.445,1.3319706 0,0.9858304 0,0.56035026 l 0,-0.57871524 z"
                   inkscape:connector-curvature="0" />
              </g>
              <g
                 id="g4063"
                 transform="translate(498.6963,310.3374)"
                 style="fill:#000000">
                <path
                   style="fill:#000000;fill-opacity:1;fill-rule:nonzero;stroke:none"
                   id="path4065"
                   d="M 0,-0.17314664 C 0,-0.62302071 -0.445,-0.992 -0.992,-0.992 l -22.279,0 c -0.545,0 -0.993,0.36897929 -0.993,0.81885336 l 0,0.61414002 c 0,0.45152499 0.448,0.81885332 0.993,0.81885332 l 22.279,0 C -0.445,1.2598467 0,0.89251837 0,0.44099338 l 0,-0.61414002 z"
                   inkscape:connector-curvature="0" />
              </g>
              <g
                 id="g4067"
                 transform="translate(459.8105,310.3374)"
                 style="fill:#000000">
                <path
                   style="fill:#000000;fill-opacity:1;fill-rule:nonzero;stroke:none"
                   id="path4069"
                   d="m 0,-0.01836498 c 0,-0.42392446 -0.447,-0.7716203 -0.992,-0.7716203 l -27.229,0 c -0.547,0 -0.992,0.34769584 -0.992,0.7716203 l 0,0.57871524 c 0,0.42548014 0.445,0.77162034 0.992,0.77162034 l 27.229,0 C -0.447,1.3319706 0,0.9858304 0,0.56035026 l 0,-0.57871524 z"
                   inkscape:connector-curvature="0" />
              </g>
              <g
                 id="g4071"
                 transform="translate(372.1689,297.3462)"
                 style="fill:#000000">
                <path
                   style="fill:#000000;fill-opacity:1;fill-rule:nonzero;stroke:none"
                   id="path4073"
                   d="m 0,0.03007192 c 0,-0.43230386 -0.445,-0.78399529 -0.992,-0.78399529 l -22.274,0 c -0.546,0 -0.992,0.35169143 -0.992,0.78399529 l 0,0.58641583 c 0,0.43151355 0.446,0.78320495 0.992,0.78320495 l 22.274,0 C -0.445,1.3996927 0,1.0480013 0,0.61648775 L 0,0.03007192 z"
                   inkscape:connector-curvature="0" />
              </g>
              <g
                 id="g4075"
                 transform="translate(498.6963,297.3462)"
                 style="fill:#000000">
                <path
                   style="fill:#000000;fill-opacity:1;fill-rule:nonzero;stroke:none"
                   id="path4077"
                   d="m 0,0.03007192 c 0,-0.43230386 -0.445,-0.78399529 -0.992,-0.78399529 l -22.279,0 c -0.545,0 -0.993,0.35169143 -0.993,0.78399529 l 0,0.58641583 c 0,0.43151355 0.448,0.78320495 0.993,0.78320495 l 22.279,0 C -0.445,1.3996927 0,1.0480013 0,0.61648775 L 0,0.03007192 z"
                   inkscape:connector-curvature="0" />
              </g>
              <g
                 id="g4079"
                 transform="translate(354.0708,246.6396)"
                 style="fill:#000000" />
              <g
                 id="g4082"
                 transform="translate(365.4028,255.5371)"
                 style="fill:#000000" />
              <g
                 id="g4086"
                 transform="translate(377.7129,247.8623)"
                 style="fill:#000000" />
              <g
                 id="g4090"
                 transform="translate(385.2432,246.542)"
                 style="fill:#000000" />
              <g
                 id="g4094"
                 transform="translate(399.0112,246.6396)"
                 style="fill:#000000" />
              <g
                 id="g4098"
                 transform="translate(408.5435,256.042)"
                 style="fill:#000000" />
              <g
                 id="g4102"
                 transform="translate(414.2578,246.6396)"
                 style="fill:#000000" />
              <g
                 id="g4106"
                 transform="translate(423.6035,246.6396)"
                 style="fill:#000000" />
              <g
                 id="g4110"
                 transform="translate(440.9561,246.6396)"
                 style="fill:#000000" />
              <g
                 id="g4114"
                 transform="translate(466.0889,256.042)"
                 style="fill:#000000" />
              <g
                 id="g4118"
                 transform="translate(474.8916,246.542)"
                 style="fill:#000000" />
              <g
                 id="g4122"
                 transform="translate(482.1738,246.6396)"
                 style="fill:#000000" />
              <g
                 id="g4126"
                 transform="translate(496.3447,256.042)"
                 style="fill:#000000" />
              <g
                 id="g4129"
                 transform="translate(353.5317,236.7432)"
                 style="fill:#000000" />
              <g
                 id="g4133"
                 transform="translate(365.9653,228.5615)"
                 style="fill:#000000" />
              <g
                 id="g4137"
                 transform="translate(378.6187,236.3193)"
                 style="fill:#000000" />
              <g
                 id="g4141"
                 transform="translate(392.4492,227.3389)"
                 style="fill:#000000" />
              <g
                 id="g4145"
                 transform="translate(396.9531,227.3389)"
                 style="fill:#000000" />
              <g
                 id="g4149"
                 transform="translate(411.4819,237.3623)"
                 style="fill:#000000" />
              <g
                 id="g4153"
                 transform="translate(421.4326,227.2412)"
                 style="fill:#000000" />
              <g
                 id="g4157"
                 transform="translate(434.6426,227.3389)"
                 style="fill:#000000" />
              <g
                 id="g4161"
                 transform="translate(444.0039,227.2412)"
                 style="fill:#000000" />
              <g
                 id="g4165"
                 transform="translate(454.4824,227.2412)"
                 style="fill:#000000" />
            </g>
          </g>
        </g>
      </g>
      <path
         inkscape:connector-curvature="0"
         id="path4167"
         d="m -58.197485,1268.8121 -0.272665,0.6817 c -0.355657,-0.1822 -0.779632,-0.2727 -1.226992,-0.2727 -0.772889,0 -1.410216,0.2953 -1.908666,0.818 -0.711324,0.7473 -0.681662,1.6049 -0.681662,3.0675 0,1.4619 -0.02971,2.3201 0.681662,3.0675 0.02028,0.021 0.04787,0.048 0.06815,0.068 l -0.54534,1.1589 0.818005,0 0.340832,-0.7499 c 0.355657,0.1814 0.779642,0.3408 1.227002,0.3408 0.77223,0 1.410875,-0.2945 1.908655,-0.8179 0.711984,-0.7474 0.681673,-1.6056 0.681673,-3.0675 0,-1.4626 0.03032,-2.3202 -0.681673,-3.0675 -0.02028,-0.021 -0.04786,-0.048 -0.06815,-0.068 l 0.54533,-1.1588 -0.886171,0 z m 5.862325,0.409 c -0.772234,0 -1.410871,0.2953 -1.908664,0.818 -0.711318,0.7473 -0.681661,1.6049 -0.681661,3.0675 0,1.4619 -0.02969,2.3201 0.681661,3.0675 0.497793,0.5234 1.157392,0.8179 1.908664,0.8179 0.763065,0 1.42795,-0.2769 1.976828,-0.8861 0.477489,-0.5332 0.68167,-1.1988 0.68167,-2.1813 l 0,-1.1588 -2.658498,0 0,1.0225 1.56783,0 0,0.4089 c 0,0.4913 -0.145038,0.9061 -0.408998,1.2271 -0.284918,0.3412 -0.680689,0.4771 -1.158832,0.4771 -0.426397,0 -0.836525,-0.1208 -1.090662,-0.409 -0.355656,-0.4054 -0.409001,-0.8597 -0.409001,-2.3858 0,-1.5262 0.05332,-1.9804 0.409001,-2.3858 0.254137,-0.2876 0.664265,-0.4772 1.090662,-0.4772 0.813499,0 1.316267,0.5308 1.499666,1.3633 l 1.158832,0 c -0.2037,-1.3021 -1.123201,-2.3858 -2.658498,-2.3858 z m 7.02116,0 c -1.504511,0 -2.385833,0.927 -2.385833,2.2495 0,0.6196 0.121506,1.0798 0.477165,1.4315 0.315052,0.3098 0.773838,0.5277 1.363327,0.6135 l 0.886171,0.1363 c 0.427051,0.064 0.635251,0.1594 0.817996,0.3408 0.193218,0.1821 0.272665,0.4184 0.272665,0.7499 0,0.7355 -0.553863,1.1588 -1.499666,1.1588 -0.742103,0 -1.311915,-0.1276 -1.840493,-0.6817 l -0.74983,0.7499 c 0.691668,0.7369 1.503045,1.0224 2.590323,1.0224 1.514992,0 2.590331,-0.8504 2.590331,-2.2494 0,-0.6498 -0.217233,-1.2043 -0.613502,-1.5678 -0.305222,-0.2882 -0.692619,-0.4386 -1.363324,-0.5454 l -0.817997,-0.1363 c -0.335364,-0.054 -0.634609,-0.1699 -0.818005,-0.3408 -0.193222,-0.1808 -0.272665,-0.4722 -0.272665,-0.7498 0,-0.6728 0.509226,-1.1589 1.363337,-1.1589 0.609792,0 1.120468,0.1641 1.567823,0.6135 l 0.681667,-0.7498 c -0.62027,-0.6073 -1.293862,-0.8862 -2.24949,-0.8862 z m 14.11047,0 c -0.772232,0 -1.410219,0.296 -1.908666,0.818 -0.711319,0.748 -0.749835,1.6049 -0.749835,3.0675 0,1.4619 0.03852,2.3201 0.749835,3.0675 0.498447,0.5234 1.136434,0.8179 1.908666,0.8179 0.772885,0 1.410871,-0.2945 1.908662,-0.8179 0.711976,-0.7474 0.681669,-1.6056 0.681669,-3.0675 0,-1.4626 0.03033,-2.3195 -0.681669,-3.0675 -0.497791,-0.522 -1.135777,-0.818 -1.908662,-0.818 z m 37.6960969,0 c -0.7722328,0 -1.4102129,0.296 -1.9086601,0.818 -0.7113192,0.748 -0.7498379,1.6049 -0.7498379,3.0675 0,1.4619 0.038515,2.3201 0.7498379,3.0675 0.4984472,0.5234 1.1364273,0.8179 1.9086601,0.8179 0.7722307,0 1.4108741,-0.2945 1.9086642,-0.8179 0.7113181,-0.7474 0.6816665,-1.6056 0.6816665,-3.0675 0,-1.4626 0.029692,-2.3195 -0.6816665,-3.0675 -0.4977901,-0.522 -1.1364335,-0.818 -1.9086642,-0.818 z m 6.8848181,0 c -1.50451,0 -2.385827,0.927 -2.385827,2.2495 0,0.6196 0.189672,1.0798 0.545331,1.4315 0.315051,0.3098 0.773838,0.5277 1.36333,0.6135 l 0.818002,0.1363 c 0.427052,0.064 0.635252,0.1594 0.817996,0.3408 0.193219,0.1821 0.272665,0.4184 0.272665,0.7499 0,0.7355 -0.553859,1.1588 -1.499666,1.1588 -0.742099,0 -1.311921,-0.1276 -1.84049,-0.6817 l -0.749839,0.7499 c 0.691023,0.7369 1.503048,1.0224 2.590329,1.0224 1.514992,0 2.590334,-0.8504 2.590334,-2.2494 0,-0.6498 -0.217231,-1.2043 -0.613501,-1.5678 -0.305226,-0.2882 -0.624453,-0.4386 -1.295163,-0.5454 l -0.818002,-0.1363 c -0.335359,-0.054 -0.635255,-0.1699 -0.817999,-0.3408 -0.193223,-0.1808 -0.272665,-0.4722 -0.272665,-0.7498 0,-0.6728 0.442367,-1.1589 1.295165,-1.1589 0.610448,0 1.120474,0.1641 1.567833,0.6135 l 0.681657,-0.7498 c -0.619618,-0.6073 -1.293862,-0.8862 -2.24949,-0.8862 z m 12.883477,0 c -0.772234,0 -1.410217,0.296 -1.908661,0.818 -0.711321,0.748 -0.68167,1.6049 -0.68167,3.0675 0,1.4619 -0.02969,2.3201 0.68167,3.0675 0.498444,0.5234 1.136427,0.8179 1.908661,0.8179 0.772233,0 1.410865,-0.2945 1.90866,-0.8179 0.711319,-0.7474 0.681664,-1.6056 0.681664,-3.0675 0,-1.4626 0.02969,-2.3195 -0.681664,-3.0675 -0.497795,-0.522 -1.136427,-0.818 -1.90866,-0.818 z m -96.114817,0.068 0,7.6347 1.090661,0 0,-3.3402 2.931158,0 0,3.3402 1.090671,0 0,-7.6347 -1.090671,0 0,3.272 -2.931158,0 0,-3.272 z m 29.10711,0 0,7.6347 1.090665,0 0,-2.2495 1.226999,-1.4996 2.044994,3.7491 1.295162,0 -2.590327,-4.6353 2.317659,-2.9994 -1.295159,0 -2.999328,3.8174 0,-3.8174 z m 14.314969,0 0,7.6347 4.635324,0 0,-1.0906 -3.544657,0 0,-6.5441 z m 6.134989,0 0,7.6347 4.635327,0 0,-1.0906 -3.54466,0 0,-2.2496 2.999329,0 0,-1.0225 -2.999329,0 0,-2.2495 3.54466,0 0,-1.0225 z m 6.952991,0 0,7.6347 1.090665,0 0,-5.3852 3.3401621,5.3852 1.0224989,0 0,-7.6347 -1.0906671,0 0,5.317 -3.4083269,-5.317 z m 10.9748137,0 0,7.6347 1.0906678,0 0,-7.6347 z m 20.4499553,0 0,7.6347 4.567161,0 0,-1.0906 -3.476491,0 0,-6.5441 z m -77.778015,0.9544 c 0.304567,0 0.584159,0.1233 0.817995,0.2726 l -2.113164,4.6354 c -0.162435,-0.3615 -0.204499,-0.9145 -0.204499,-2.045 0,-1.5262 0.05334,-1.9804 0.408997,-2.3858 0.254138,-0.2876 0.663612,-0.4772 1.090671,-0.4772 z m 28.493612,0 c 0.427053,0 0.768357,0.1896 1.022494,0.4772 0.355659,0.4054 0.477169,0.859 0.477169,2.3858 0,1.5261 -0.12151,1.9123 -0.477169,2.3177 -0.254137,0.2882 -0.595441,0.4771 -1.022494,0.4771 -0.4264,0 -0.836527,-0.1889 -1.090664,-0.4771 -0.355659,-0.4054 -0.409001,-0.7916 -0.409001,-2.3177 0,-1.5268 0.05331,-1.9804 0.409001,-2.3858 0.254137,-0.2876 0.664264,-0.4772 1.090664,-0.4772 z m 37.6960969,0 c 0.4270521,0 0.76836,0.1896 1.0224938,0.4772 0.3556621,0.4054 0.4771688,0.859 0.4771688,2.3858 0,1.5261 -0.1215067,1.9123 -0.4771688,2.3177 -0.2541338,0.2882 -0.5954417,0.4771 -1.0224938,0.4771 -0.4270511,0 -0.8358702,-0.1889 -1.0906611,-0.4771 -0.355659,-0.4054 -0.4090046,-0.7916 -0.4090046,-2.3177 0,-1.5268 0.05332,-1.9804 0.4090046,-2.3858 0.2547909,-0.2876 0.66361,-0.4772 1.0906611,-0.4772 z m 19.7682951,0 c 0.427051,0 0.836527,0.1896 1.090661,0.4772 0.355662,0.4054 0.409002,0.859 0.409002,2.3858 0,1.5261 -0.05331,1.9123 -0.409002,2.3177 -0.254134,0.2882 -0.66361,0.4771 -1.090661,0.4771 -0.427052,0 -0.835876,-0.1889 -1.090665,-0.4771 -0.355659,-0.4054 -0.408998,-0.7916 -0.408998,-2.3177 0,-1.5268 0.05332,-1.9804 0.408998,-2.3858 0.254789,-0.2876 0.663613,-0.4772 1.090665,-0.4772 z m -84.662846,0.818 c 0.172921,0.3629 0.204499,0.9132 0.204499,2.045 0,1.5261 -0.05334,1.9123 -0.408997,2.3177 -0.254128,0.2882 -0.663612,0.4771 -1.09066,0.4771 -0.305227,0 -0.594645,-0.055 -0.817995,-0.2044 z m -9.406973,10.516 c -0.526367,0.1055 -0.989506,0.426 -1.363335,0.8179 -0.711314,0.7474 -0.681663,1.5369 -0.681663,2.9994 0,1.462 -0.02971,2.3202 0.681663,3.0674 0.498449,0.5234 1.136425,0.8181 1.908655,0.8181 0.772889,0 1.410875,-0.2947 1.908665,-0.8181 0.711984,-0.7472 0.681673,-1.6054 0.681673,-3.0674 0,-1.4625 0.03032,-2.252 -0.681673,-2.9994 -0.49779,-0.5226 -1.135776,-0.8179 -1.908665,-0.8179 -0.19305,0 -0.369874,-0.035 -0.54532,0 z m 7.225653,0 c -0.526336,0.1055 -0.989992,0.4255 -1.363335,0.8179 -0.711324,0.7468 -0.681673,1.5369 -0.681673,2.9994 0,1.462 -0.02971,2.3202 0.681673,3.0674 0.49779,0.5234 1.157386,0.8181 1.908665,0.8181 0.763063,0 1.427952,-0.277 1.976822,-0.8862 0.477498,-0.5331 0.681672,-1.1306 0.681672,-2.1131 l 0,-1.1588 -2.658494,0 0,0.9542 1.567824,0 0,0.4091 c 0,0.4912 -0.145033,0.9073 -0.408997,1.2269 -0.284926,0.3413 -0.680689,0.5454 -1.158827,0.5454 -0.426399,0 -0.836532,-0.189 -1.09067,-0.4772 -0.355657,-0.4054 -0.408997,-0.8583 -0.408997,-2.3858 0,-1.5261 0.05334,-1.9122 0.408997,-2.3177 0.254138,-0.2875 0.664271,-0.4771 1.09067,-0.4771 0.813493,0 1.316262,0.4627 1.499668,1.2951 l 1.158826,0 c -0.203697,-1.3021 -1.123202,-2.3176 -2.658494,-2.3176 -0.19306,0 -0.369894,-0.035 -0.54533,0 z m 38.991255,0 c -1.504514,0 -2.453995,0.8576 -2.453995,2.1813 0,0.6197 0.189672,1.1466 0.545328,1.4997 0.315052,0.3098 0.773844,0.5277 1.363333,0.6135 l 0.886161,0.068 c 0.427055,0.064 0.567091,0.1594 0.749841,0.3409 0.193219,0.1808 0.34083,0.4865 0.34083,0.8179 0,0.7369 -0.55386,1.1589 -1.499663,1.1589 -0.742103,0 -1.38009,-0.1951 -1.908667,-0.7498 l -0.681667,0.7498 c 0.691016,0.7355 1.434888,1.0225 2.522169,1.0225 1.514988,0 2.590325,-0.8511 2.590325,-2.2495 0,-0.6511 -0.149065,-1.2057 -0.545331,-1.5678 -0.305225,-0.2882 -0.692626,-0.4393 -1.363334,-0.5454 l -0.817996,-0.1363 c -0.335355,-0.053 -0.635255,-0.1692 -0.817999,-0.3408 -0.193219,-0.1815 -0.272665,-0.404 -0.272665,-0.6818 0,-0.6713 0.442368,-1.2269 1.295165,-1.2269 0.610448,0 1.120472,0.1655 1.567828,0.6135 l 0.749831,-0.7499 c -0.619619,-0.6084 -1.293868,-0.8179 -2.249494,-0.8179 z m 21.60879635,0 c -1.50451265,0 -2.38582965,0.8576 -2.38582965,2.1813 0,0.6197 0.1896689,1.1466 0.545331,1.4997 0.3150483,0.3098 0.7738408,0.5277 1.36332982,0.6135 l 0.81799603,0.068 c 0.42705545,0.064 0.63526471,0.1594 0.81800545,0.3409 0.1932222,0.1808 0.272665,0.4865 0.272665,0.8179 0,0.7369 -0.55385942,1.1589 -1.49966289,1.1589 -0.74210252,0 -1.31192151,-0.1951 -1.84049871,-0.7498 l -0.7498338,0.7498 c 0.6910143,0.7355 1.5030514,1.0225 2.59033251,1.0225 1.51499169,0 2.59032489,-0.8511 2.59032489,-2.2495 0,-0.6511 -0.2165743,-1.2057 -0.6134952,-1.5678 -0.3045709,-0.2882 -0.6244605,-0.4393 -1.29517197,-0.5454 l -0.88615749,-0.1363 c -0.33535524,-0.053 -0.56709007,-0.1692 -0.74983184,-0.3408 -0.1932222,-0.1815 -0.272665,-0.404 -0.272665,-0.6818 0,-0.6713 0.44236776,-1.2269 1.29516185,-1.2269 0.61045126,0 1.12046905,0.1655 1.56782815,0.6135 l 0.6816665,-0.7499 c -0.6196192,-0.6084 -1.29386884,-0.8179 -2.24949465,-0.8179 z m -50.23874035,0.068 -2.658498,7.5666 1.158832,0 0.545331,-1.4998 2.794828,0 0.545331,1.4998 1.158832,0 -2.658495,-7.5666 z m 5.180658,0 0,7.5666 1.090659,0 0,-2.1814 1.226999,-1.5678 2.044994,3.7492 1.295168,0 -2.590333,-4.6354 2.317668,-2.9312 -1.363333,0 -2.931163,3.8174 0,-3.8174 z m 7.293812,0 0,7.5666 4.635327,0 0,-1.0225 -3.544656,0 0,-2.3177 2.999325,0 0,-1.0225 -2.999325,0 0,-2.1814 3.544656,0 0,-1.0225 z m 6.816658,0 0,7.5666 1.090666,0 0,-3.2039 1.36333,0 1.499659,3.2039 1.295165,0 -1.635992,-3.3402 c 0.81284,-0.2346 1.431497,-0.9565 1.431497,-2.045 0,-1.2923 -0.877297,-2.1814 -2.249502,-2.1814 z m 13.837807,0 0,7.5666 1.090664,0 0,-3.3402 2.931163,0 0,3.3402 1.090659,0 0,-7.5666 -1.090659,0 0,3.2039 -2.931163,0 0,-3.2039 z m 7.5664868,0 0,4.9762 c 0,1.57 1.1166082,2.6585 2.5903338,2.6585 1.4737255,0 2.5903236,-1.0885 2.5903236,-2.6585 l 0,-4.9762 -1.090661,0 0,4.9762 c 0,1.0133 -0.5951253,1.636 -1.4996626,1.636 -0.9045404,0 -1.4996626,-0.6227 -1.4996626,-1.636 l 0,-4.9762 z m -57.7370658,0.9544 c 0.427058,0 0.836532,0.1896 1.09067,0.4771 0.355657,0.4055 0.408998,0.7909 0.408998,2.3177 0,1.5275 -0.05334,1.9804 -0.408998,2.3858 -0.254138,0.2895 -0.663612,0.4772 -1.09067,0.4772 -0.426389,0 -0.836522,-0.1877 -1.09065,-0.4772 -0.355667,-0.4054 -0.409007,-0.8583 -0.409007,-2.3858 0,-1.5268 0.05334,-1.9122 0.409007,-2.3177 0.254128,-0.2875 0.664261,-0.4771 1.09065,-0.4771 z m 37.423438,0.068 1.635995,0 c 0.732277,0 1.226994,0.4121 1.226994,1.1589 0,0.7473 -0.494717,1.2269 -1.226994,1.2269 l -1.635995,0 z m -19.904628,0.6817 1.090662,3.3401 -2.249498,0 z"
         style="fill:#000000;fill-opacity:1;fill-rule:nonzero;stroke:none"
         sodipodi:nodetypes="ccscscccccscscccccscscscsccccscscscsccsssccccssccssccccssccsscscscscsscscscscsssccccssccssccccssccsscscscscscccccccccccccccccccccccccccccccccccccccccccccccccccccccccccccccccccccsccscsscscscscsscscscscsscscscscscscsccccscscscscccscscsccccscscscsccsccsccccssccssccccsscccccsccccssccssccccsscccccccccccccccccccccccccccccccccccccccccccccccsscccccccccccccccsssccsssccscscscscscssscccccc" />
    </g>
  </g>
</svg>
